<svg xmlns="http://www.w3.org/2000/svg" width="18" height="15" viewBox="0 0 18 15" fill="none">
<path d="M0.241211 7.13672C0.241211 6.82031 0.358398 6.55078 0.592773 6.32812L6.34082 0.580078C6.46387 0.457031 6.58984 0.369141 6.71875 0.316406C6.85352 0.257812 6.98828 0.228516 7.12305 0.228516C7.44531 0.228516 7.70605 0.328125 7.90527 0.527344C8.10449 0.726563 8.2041 0.972656 8.2041 1.26562C8.2041 1.42383 8.17188 1.57031 8.10742 1.70508C8.04883 1.83398 7.96973 1.94824 7.87012 2.04785L5.90137 4.03418L2.78125 6.89941L2.37695 6.22266L5.57617 6.04688H15.9473C16.2812 6.04688 16.5508 6.14941 16.7559 6.35449C16.9609 6.55371 17.0635 6.81445 17.0635 7.13672C17.0635 7.46484 16.9609 7.73145 16.7559 7.93652C16.5508 8.13574 16.2812 8.23535 15.9473 8.23535H5.57617L2.37695 8.05078L2.78125 7.3916L5.90137 10.2393L7.87012 12.2256C7.96973 12.3252 8.04883 12.4395 8.10742 12.5684C8.17188 12.6973 8.2041 12.8438 8.2041 13.0078C8.2041 13.3008 8.10449 13.5469 7.90527 13.7461C7.70605 13.9453 7.44531 14.0449 7.12305 14.0449C6.8418 14.0449 6.58691 13.9307 6.3584 13.7021L0.592773 7.94531C0.358398 7.72266 0.241211 7.45312 0.241211 7.13672Z" fill="black" fill-opacity="0.9"/>
</svg>