<svg width="18" height="12" viewBox="0 0 18 12" fill="none" xmlns="http://www.w3.org/2000/svg">
<path fill-rule="evenodd" clip-rule="evenodd" d="M16.6667 0.666016H15.6667C15.1144 0.666016 14.6667 1.11373 14.6667 1.66602V10.3327C14.6667 10.885 15.1144 11.3327 15.6667 11.3327H16.6667C17.2189 11.3327 17.6667 10.885 17.6667 10.3327V1.66602C17.6667 1.11373 17.2189 0.666016 16.6667 0.666016ZM11 3H12C12.5523 3 13 3.44772 13 4V10.3333C13 10.8856 12.5523 11.3333 12 11.3333H11C10.4477 11.3333 10 10.8856 10 10.3333V4C10 3.44772 10.4477 3 11 3ZM7.33331 5.33203H6.33331C5.78103 5.33203 5.33331 5.77975 5.33331 6.33203V10.332C5.33331 10.8843 5.78103 11.332 6.33331 11.332H7.33331C7.8856 11.332 8.33331 10.8843 8.33331 10.332V6.33203C8.33331 5.77975 7.8856 5.33203 7.33331 5.33203ZM2.66666 7.33203H1.66666C1.11437 7.33203 0.666656 7.77975 0.666656 8.33203V10.332C0.666656 10.8843 1.11437 11.332 1.66666 11.332H2.66666C3.21894 11.332 3.66666 10.8843 3.66666 10.332V8.33203C3.66666 7.77975 3.21894 7.33203 2.66666 7.33203Z" fill="black" fill-opacity="0.9"/>
</svg>
