<svg width="117" height="45" viewBox="0 0 117 45" fill="none" xmlns="http://www.w3.org/2000/svg">
<path fill-rule="evenodd" clip-rule="evenodd" d="M48.4361 23.5594C47.8511 22.9743 47.8582 22.0187 48.4361 21.4407L55.1667 14.7101C55.5589 14.3179 56.3257 14 56.8843 14L67.5049 14C69.4367 14 71.0028 15.5688 71.0028 17.5018V27.4982C71.0028 29.4322 69.4258 31 67.5049 31L56.8843 31C56.3279 31 55.554 30.6772 55.1667 30.2899L48.4361 23.5594ZM63.1213 22.4777L65.9455 19.6536C66.2388 19.3603 66.2426 18.8815 65.9497 18.5886C65.6548 18.2937 65.1801 18.2976 64.8848 18.5929L62.0607 21.417L59.2365 18.5929C58.9432 18.2996 58.4645 18.2957 58.1716 18.5886C57.8766 18.8835 57.8806 19.3583 58.1759 19.6536L61 22.4777L58.1759 25.3018C57.8826 25.5951 57.8787 26.0739 58.1716 26.3668C58.4665 26.6617 58.9413 26.6578 59.2365 26.3625L62.0607 23.5384L64.8848 26.3625C65.1781 26.6558 65.6569 26.6597 65.9497 26.3668C66.2447 26.0718 66.2407 25.5971 65.9455 25.3018L63.1213 22.4777ZM50.0865 23.2097C49.6946 22.8178 49.6958 22.181 50.0865 21.7903L56.0201 15.8568C56.2171 15.6597 56.6024 15.5 56.8705 15.5L67.5 15.5C68.6061 15.5 69.5028 16.3971 69.5028 17.5059V27.4941C69.5028 28.6019 68.6092 29.5 67.5 29.5L56.8705 29.5C56.5979 29.5 56.2174 29.3407 56.0201 29.1433L50.0865 23.2097Z" fill="black" fill-opacity="0.9"/>
</svg>
